<svg width="10" height="10" viewBox="0 0 10 10" fill="none" xmlns="http://www.w3.org/2000/svg">
<path d="M5 9.5C4.10999 9.5 3.23996 9.23608 2.49994 8.74162C1.75991 8.24715 1.18314 7.54434 0.842544 6.72208C0.50195 5.89981 0.412835 4.99501 0.586468 4.1221C0.760102 3.24918 1.18869 2.44736 1.81802 1.81802C2.44736 1.18869 3.24918 0.760102 4.1221 0.586468C4.99501 0.412835 5.89981 0.50195 6.72208 0.842544C7.54434 1.18314 8.24715 1.75991 8.74162 2.49994C9.23608 3.23996 9.5 4.10999 9.5 5C9.5 6.19348 9.0259 7.33807 8.18198 8.18198C7.33807 9.0259 6.19348 9.5 5 9.5ZM5 2C4.40666 2 3.82664 2.17595 3.33329 2.50559C2.83994 2.83524 2.45543 3.30377 2.22836 3.85195C2.0013 4.40013 1.94189 5.00333 2.05765 5.58527C2.1734 6.16722 2.45912 6.70176 2.87868 7.12132C3.29824 7.54088 3.83279 7.8266 4.41473 7.94236C4.99667 8.05811 5.59987 7.9987 6.14805 7.77164C6.69623 7.54458 7.16477 7.16006 7.49441 6.66671C7.82405 6.17336 8 5.59335 8 5C8 4.20435 7.68393 3.44129 7.12132 2.87868C6.55871 2.31607 5.79565 2 5 2Z" fill="#666666"/>
</svg>
